{
  "accessors": [
    {
      "bufferView": 2,
      "componentType": 5126,
      "count": 536,
      "max": [
        0.0509558841586113,
        0.07400000095367432,
        0.0
      ],
      "min": [
        -0.05249999836087227,
        -0.07400000095367432,
        -0.006000000052154064
      ],
      "type": "VEC3"
    },
    {
      "bufferView": 2,
      "byteOffset": 6432,
      "componentType": 5126,
      "count": 536,
      "max": [
        1.0,
        1.0,
        2.0178649720037356e-06
      ],
      "min": [
        -1.0,
        -1.0,
        -1.862645149230957e-06
      ],
      "type": "VEC3"
    },
    {
      "bufferView": 1,
      "componentType": 5126,
      "count": 536,
      "max": [
        0.9476298093795776,
        0.71138995885849
      ],
      "min": [
        0.0,
        0.3077453076839447
      ],
      "type": "VEC2"
    },
    {
      "bufferView": 0,
      "componentType": 5125,
      "count": 816,
      "type": "SCALAR"
    },
    {
      "bufferView": 2,
      "byteOffset": 12864,
      "componentType": 5126,
      "count": 432,
      "max": [
        0.0509558841586113,
        0.07400000095367432,
        0.0
      ],
      "min": [
        -0.05249999836087227,
        -0.07400000095367432,
        -0.006000000052154064
      ],
      "type": "VEC3"
    },
    {
      "bufferView": 2,
      "byteOffset": 18048,
      "componentType": 5126,
      "count": 432,
      "max": [
        1.0,
        1.0,
        1.0
      ],
      "min": [
        -1.0,
        -1.0,
        -1.0
      ],
      "type": "VEC3"
    },
    {
      "bufferView": 1,
      "byteOffset": 4288,
      "componentType": 5126,
      "count": 432,
      "max": [
        0.9199683666229248,
        0.9175229072570801
      ],
      "min": [
        1.6563337368324937e-08,
        0.0
      ],
      "type": "VEC2"
    },
    {
      "bufferView": 0,
      "byteOffset": 3264,
      "componentType": 5125,
      "count": 1248,
      "type": "SCALAR"
    },
    {
      "bufferView": 2,
      "byteOffset": 23232,
      "componentType": 5126,
      "count": 38003,
      "max": [
        0.04953965172171593,
        0.005726722534745932,
        0.005728154443204403
      ],
      "min": [
        -0.05202977731823921,
        -0.005700891837477684,
        -0.0056995004415512085
      ],
      "type": "VEC3"
    },
    {
      "bufferView": 2,
      "byteOffset": 479268,
      "componentType": 5126,
      "count": 38003,
      "max": [
        0.9997054934501648,
        0.9999986290931702,
        0.9999997019767761
      ],
      "min": [
        -0.9998528957366943,
        -0.9999987483024597,
        -0.9999997615814209
      ],
      "type": "VEC3"
    },
    {
      "bufferView": 1,
      "byteOffset": 7744,
      "componentType": 5126,
      "count": 38003,
      "max": [
        0.9302297830581665,
        0.928822934627533
      ],
      "min": [
        0.6959695816040039,
        1.422238682380339e-08
      ],
      "type": "VEC2"
    },
    {
      "bufferView": 0,
      "byteOffset": 8256,
      "componentType": 5125,
      "count": 175284,
      "type": "SCALAR"
    },
    {
      "bufferView": 2,
      "byteOffset": 935304,
      "componentType": 5126,
      "count": 1167,
      "max": [
        0.052255887538194656,
        0.07530000060796738,
        -0.0014839861541986465
      ],
      "min": [
        -0.05380000174045563,
        -0.07400000095367432,
        -0.0024839863181114197
      ],
      "type": "VEC3"
    },
    {
      "bufferView": 2,
      "byteOffset": 949308,
      "componentType": 5126,
      "count": 1167,
      "max": [
        1.0,
        1.0,
        1.0
      ],
      "min": [
        -1.0,
        -1.0,
        -1.0
      ],
      "type": "VEC3"
    },
    {
      "bufferView": 1,
      "byteOffset": 311768,
      "componentType": 5126,
      "count": 1167,
      "max": [
        0.9483107924461365,
        0.9397174715995789
      ],
      "min": [
        0.0,
        -8.307498688964188e-09
      ],
      "type": "VEC2"
    },
    {
      "bufferView": 0,
      "byteOffset": 709392,
      "componentType": 5125,
      "count": 2952,
      "type": "SCALAR"
    }
  ],
  "asset": {
    "extras": {
      "author": "FractalSpace (https://sketchfab.com/fractalspace)",
      "license": "CC-BY-4.0 (http://creativecommons.org/licenses/by/4.0/)",
      "source": "https://sketchfab.com/3d-models/notepad-ece41dfea050460d962b09a2c2596147",
      "title": "Notepad"
    },
    "generator": "Sketchfab-15.85.0",
    "version": "2.0"
  },
  "bufferViews": [
    {
      "buffer": 0,
      "byteLength": 721200,
      "name": "floatBufferViews",
      "target": 34963
    },
    {
      "buffer": 0,
      "byteLength": 321104,
      "byteOffset": 721200,
      "byteStride": 8,
      "name": "floatBufferViews",
      "target": 34962
    },
    {
      "buffer": 0,
      "byteLength": 963312,
      "byteOffset": 1042304,
      "byteStride": 12,
      "name": "floatBufferViews",
      "target": 34962
    }
  ],
  "buffers": [
    {
      "byteLength": 2005616,
      "uri": "scene.bin"
    }
  ],
  "extensionsUsed": [
    "KHR_texture_transform",
    "KHR_materials_specular"
  ],
  "images": [
    {
      "uri": "textures/PaperSide_baseColor.jpeg"
    },
    {
      "uri": "textures/Paper_baseColor.jpeg"
    },
    {
      "uri": "textures/Cardboard_baseColor.png"
    }
  ],
  "materials": [
    {
      "doubleSided": true,
      "name": "PaperSide",
      "pbrMetallicRoughness": {
        "baseColorFactor": [
          0.20254477842475532,
          0.20254477842475532,
          0.20254477842475532,
          1.0
        ],
        "baseColorTexture": {
          "index": 0
        },
        "metallicFactor": 0.0,
        "roughnessFactor": 0.8211145618000169
      }
    },
    {
      "doubleSided": true,
      "extensions": {
        "KHR_materials_specular": {
          "specularColorFactor": [
            1.0,
            1.0,
            1.0
          ],
          "specularFactor": 0.4998047410049718
        }
      },
      "name": "Paper",
      "pbrMetallicRoughness": {
        "baseColorFactor": [
          0.0218573501897218,
          0.0218573501897218,
          0.0218573501897218,
          1.0
        ],
        "baseColorTexture": {
          "extensions": {
            "KHR_texture_transform": {
              "scale": [
                1.0020922707612587,
                1
              ]
            }
          },
          "index": 1
        },
        "metallicFactor": 0.0
      }
    },
    {
      "doubleSided": true,
      "name": "Plastic",
      "pbrMetallicRoughness": {
        "baseColorFactor": [
          0.002602308864758374,
          0.002602308864758374,
          0.002602308864758374,
          1.0
        ],
        "roughnessFactor": 0.2841455524663834
      }
    },
    {
      "doubleSided": true,
      "name": "Cardboard",
      "pbrMetallicRoughness": {
        "baseColorFactor": [
          0.1326012578176456,
          0.1326012578176456,
          0.1326012578176456,
          1.0
        ],
        "baseColorTexture": {
          "index": 2
        },
        "metallicFactor": 0.0,
        "roughnessFactor": 0.9922877875818112
      }
    }
  ],
  "meshes": [
    {
      "name": "Paper_PaperSide_0",
      "primitives": [
        {
          "attributes": {
            "NORMAL": 1,
            "POSITION": 0,
            "TEXCOORD_0": 2
          },
          "indices": 3,
          "material": 0,
          "mode": 4
        }
      ]
    },
    {
      "name": "Paper_Paper_0",
      "primitives": [
        {
          "attributes": {
            "NORMAL": 5,
            "POSITION": 4,
            "TEXCOORD_0": 6
          },
          "indices": 7,
          "material": 1,
          "mode": 4
        }
      ]
    },
    {
      "name": "Binding_Plastic_0",
      "primitives": [
        {
          "attributes": {
            "NORMAL": 9,
            "POSITION": 8,
            "TEXCOORD_0": 10
          },
          "indices": 11,
          "material": 2,
          "mode": 4
        }
      ]
    },
    {
      "name": "Cartonage_Cardboard_0",
      "primitives": [
        {
          "attributes": {
            "NORMAL": 13,
            "POSITION": 12,
            "TEXCOORD_0": 14
          },
          "indices": 15,
          "material": 3,
          "mode": 4
        }
      ]
    }
  ],
  "nodes": [
    {
      "children": [
        1
      ],
      "matrix": [
        1.0,
        0.0,
        0.0,
        0.0,
        0.0,
        2.220446049250313e-16,
        -1.0,
        0.0,
        0.0,
        1.0,
        2.220446049250313e-16,
        0.0,
        0.0,
        0.0,
        0.0,
        1.0
      ],
      "name": "Sketchfab_model"
    },
    {
      "children": [
        2
      ],
      "matrix": [
        0.009999999776482582,
        0.0,
        0.0,
        0.0,
        0.0,
        0.0,
        0.009999999776482582,
        0.0,
        0.0,
        -0.009999999776482582,
        0.0,
        0.0,
        0.0,
        0.0,
        0.0,
        1.0
      ],
      "name": "457fe0709ee3482caeb15e77ff61625d.fbx"
    },
    {
      "children": [
        3,
        6,
        8,
        10,
        12
      ],
      "name": "RootNode"
    },
    {
      "children": [
        4,
        5
      ],
      "matrix": [
        -99.99999999999241,
        3.894143773112119e-05,
        -2.0103820900894834e-13,
        0.0,
        2.006987066628649e-11,
        5.205485483772421e-05,
        99.99999999998644,
        0.0,
        3.894143773111602e-05,
        99.99999999997887,
        -5.205485482662198e-05,
        0.0,
        0.022004228085279465,
        0.8582313656806946,
        4.959001541137695,
        1.0
      ],
      "name": "Paper"
    },
    {
      "mesh": 0,
      "name": "Paper_PaperSide_0"
    },
    {
      "mesh": 1,
      "name": "Paper_Paper_0"
    },
    {
      "children": [
        7
      ],
      "matrix": [
        -99.99999999999241,
        3.894143773112119e-05,
        -2.0103820900894834e-13,
        0.0,
        2.006987066628649e-11,
        5.205485483772421e-05,
        99.99999999998644,
        0.0,
        3.894143773111602e-05,
        99.99999999997887,
        -5.205485482662198e-05,
        0.0,
        -0.011002103798091412,
        0.5526726841926575,
        -2.4795005321502686,
        1.0
      ],
      "name": "Binding"
    },
    {
      "mesh": 2,
      "name": "Binding_Plastic_0"
    },
    {
      "children": [
        9
      ],
      "matrix": [
        -99.99999999999241,
        3.894143773112119e-05,
        -2.0103820900894834e-13,
        0.0,
        2.006987066628649e-11,
        5.205485483772421e-05,
        99.99999999998644,
        0.0,
        3.894143773111602e-05,
        99.99999999997887,
        -5.205485482662198e-05,
        0.0,
        0.02200418710708618,
        0.39803916215896606,
        4.959001541137695,
        1.0
      ],
      "name": "Cartonage"
    },
    {
      "mesh": 3,
      "name": "Cartonage_Cardboard_0"
    },
    {
      "children": [
        11
      ],
      "matrix": [
        -20.37507985640332,
        -17.9047928781267,
        18.26228831283022,
        0.0,
        -13.33293606628445,
        27.361564798938975,
        11.950502025655327,
        0.0,
        -21.82488579027777,
        7.677859768312898e-05,
        -24.34976430727412,
        0.0,
        25.655052185058594,
        22.43793487548828,
        -23.019227981567383,
        1.0
      ],
      "name": "Camera"
    },
    {
      "name": "Object_11"
    },
    {
      "children": [
        13
      ],
      "matrix": [
        100.0,
        0.0,
        0.0,
        0.0,
        0.0,
        99.99999999999972,
        -7.5497901264043296e-06,
        0.0,
        0.0,
        7.5497901264043296e-06,
        99.99999999999972,
        0.0,
        45.195499420166016,
        8.708127975463867,
        0.0,
        1.0
      ],
      "name": "Point"
    },
    {
      "children": [
        14
      ],
      "matrix": [
        1.0,
        0.0,
        0.0,
        0.0,
        0.0,
        2.220446049250313e-16,
        1.0,
        0.0,
        0.0,
        -1.0,
        2.220446049250313e-16,
        0.0,
        0.0,
        0.0,
        0.0,
        1.0
      ],
      "name": "Object_13"
    },
    {
      "name": "Object_14"
    }
  ],
  "samplers": [
    {
      "magFilter": 9729,
      "minFilter": 9987,
      "wrapS": 10497,
      "wrapT": 10497
    }
  ],
  "scene": 0,
  "scenes": [
    {
      "name": "Sketchfab_Scene",
      "nodes": [
        0
      ]
    }
  ],
  "textures": [
    {
      "sampler": 0,
      "source": 0
    },
    {
      "sampler": 0,
      "source": 1
    },
    {
      "sampler": 0,
      "source": 2
    }
  ]
}
